# xmcd CD database file
#
# Track frame offsets:
#	150
#	30253
#	72437
#	108391
#	133448
#	171002
#	223276
#	258976
#
# Disc length: 4107 seconds
#
# Revision: 0
# Processed by: cddbd v1.5.2PL0 Copyright (c) Steve Scherf et al.
# Submitted via: CDex 1.70beta2
#
DISCID=77100908
DTITLE=Jessica Williams - Billy's Theme
DYEAR=2006
DGENRE=Jazz
TTITLE0=Finally Free
TTITLE1=Billy's Theme
TTITLE2=The Soul Doctor
TTITLE3=Blues for BT
TTITLE4=Taylor's Triumph
TTITLE5=Spontaneous Composition and Impovisation No. 1
TTITLE6=Spontaneous Composition and Impovisation No. 2
TTITLE7=Billy's Theme
EXTD=YEAR: 2006
EXTT0=
EXTT1=
EXTT2=
EXTT3=
EXTT4=
EXTT5=
EXTT6=
EXTT7=
PLAYORDER=
